<?xml version="1.0" encoding="UTF-8" standalone="no"?>
<!-- Created with Inkscape (http://www.inkscape.org/) -->

<svg
   xmlns:osb="http://www.openswatchbook.org/uri/2009/osb"
   xmlns:dc="http://purl.org/dc/elements/1.1/"
   xmlns:cc="http://creativecommons.org/ns#"
   xmlns:rdf="http://www.w3.org/1999/02/22-rdf-syntax-ns#"
   xmlns:svg="http://www.w3.org/2000/svg"
   xmlns="http://www.w3.org/2000/svg"
   xmlns:xlink="http://www.w3.org/1999/xlink"
   xmlns:sodipodi="http://sodipodi.sourceforge.net/DTD/sodipodi-0.dtd"
   xmlns:inkscape="http://www.inkscape.org/namespaces/inkscape"
   width="116"
   height="168"
   id="svg2"
   version="1.1"
   inkscape:version="0.48.3.1 r9886"
   sodipodi:docname="green-striped-wave-1.svg">
  <defs
     id="defs4">
    <inkscape:path-effect
       effect="spiro"
       id="path-effect3008"
       is_visible="true" />
    <inkscape:path-effect
       effect="spiro"
       id="path-effect3004"
       is_visible="true" />
    <linearGradient
       id="linearGradient5521"
       osb:paint="solid">
      <stop
         style="stop-color:#ff0000;stop-opacity:1;"
         offset="0"
         id="stop5523" />
    </linearGradient>
    <g
       transform="translate(302,82)"
       id="card7">
      <g
         id="card7_symbols"
         class="purple filled">
        <use
           xlink:href="#squiggle"
           transform="translate(47,37)"
           id="use8" />
      </g>
      <use
         xlink:href="#check"
         class="shown"
         id="card7_check" />
      <use
         xlink:href="#card-large"
         id="use11" />
    </g>
    <linearGradient
       id="linearGradient5399"
       osb:paint="solid">
      <stop
         style="stop-color:#000000;stop-opacity:1;"
         offset="0"
         id="stop5401" />
    </linearGradient>
    <linearGradient
       id="linearGradient5262"
       osb:paint="solid">
      <stop
         style="stop-color:#ffffff;stop-opacity:1;"
         offset="0"
         id="stop5264" />
    </linearGradient>
    <inkscape:path-effect
       effect="spiro"
       id="path-effect3008-9"
       is_visible="true" />
    <inkscape:path-effect
       effect="spiro"
       id="path-effect3008-2"
       is_visible="true" />
    <inkscape:path-effect
       effect="spiro"
       id="path-effect3008-3"
       is_visible="true" />
    <inkscape:path-effect
       effect="spiro"
       id="path-effect3008-7"
       is_visible="true" />
    <inkscape:path-effect
       effect="spiro"
       id="path-effect3008-3-1"
       is_visible="true" />
    <inkscape:path-effect
       effect="spiro"
       id="path-effect3008-3-9"
       is_visible="true" />
  </defs>
  <sodipodi:namedview
     id="base"
     pagecolor="#ffffff"
     bordercolor="#666666"
     borderopacity="1.0"
     inkscape:pageopacity="1"
     inkscape:pageshadow="2"
     inkscape:zoom="5.6"
     inkscape:cx="17.595089"
     inkscape:cy="86.011526"
     inkscape:document-units="px"
     inkscape:current-layer="layer1"
     showgrid="false"
     inkscape:window-width="1855"
     inkscape:window-height="1056"
     inkscape:window-x="65"
     inkscape:window-y="24"
     inkscape:window-maximized="1" />
  <metadata
     id="metadata7">
    <rdf:RDF>
      <cc:Work
         rdf:about="">
        <dc:format>image/svg+xml</dc:format>
        <dc:type
           rdf:resource="http://purl.org/dc/dcmitype/StillImage" />
        <dc:title></dc:title>
      </cc:Work>
    </rdf:RDF>
  </metadata>
  <g
     inkscape:label="Layer 1"
     inkscape:groupmode="layer"
     id="layer1"
     transform="translate(0,-884.36217)">
    <path
       style="fill:none;stroke:#000000;stroke-width:1px;stroke-linecap:butt;stroke-linejoin:miter;stroke-opacity:1"
       d="m 117.68277,32.63956 c 70.96322,-0.252538 70.45814,-0.505076 70.45814,-0.505076 l 0.25254,0.252538"
       id="path3025"
       inkscape:connector-curvature="0"
       transform="translate(0,884.36217)" />
    <path
       style="fill:none;stroke:#000000;stroke-width:1px;stroke-linecap:butt;stroke-linejoin:miter;stroke-opacity:1"
       d="m 117.43023,81.631958 c 76.01398,0 76.01398,0 76.01398,0"
       id="path3027"
       inkscape:connector-curvature="0"
       transform="translate(0,884.36217)" />
    <path
       style="fill:none;stroke:#000000;stroke-width:1px;stroke-linecap:butt;stroke-linejoin:miter;stroke-opacity:1"
       d="m 118.18785,132.39212 c 76.01398,-1.26269 76.01398,-1.26269 76.01398,-1.26269"
       id="path3029"
       inkscape:connector-curvature="0"
       transform="translate(0,884.36217)" />
    <path
       style="fill:none;stroke:#000000;stroke-width:1px;stroke-linecap:butt;stroke-linejoin:miter;stroke-opacity:1"
       d="m 119.198,106.3807 c 97.73226,-0.50508 97.73226,-0.50508 97.73226,-0.50508"
       id="path3031"
       inkscape:connector-curvature="0"
       transform="translate(0,884.36217)" />
    <path
       style="fill:none;stroke:#000000;stroke-width:1px;stroke-linecap:butt;stroke-linejoin:miter;stroke-opacity:1"
       d="m 119.198,56.125606 c 98.48987,-1.26269 98.48987,-1.515228 98.48987,-1.515228"
       id="path3033"
       inkscape:connector-curvature="0"
       transform="translate(0,884.36217)" />
    <rect
       style="fill:none;stroke:#0000f3;stroke-opacity:1"
       id="rect3959"
       width="0.17857143"
       height="160.53572"
       x="-43.571426"
       y="880.93347" />
    <path
       style="fill:none;stroke:#00ff00;stroke-width:1px;stroke-linecap:butt;stroke-linejoin:miter;stroke-opacity:1"
       d="m 25.437282,932.08684 c 3.099637,-1.35659 6.442799,-2.15449 9.82099,-2.34394 6.633245,-0.372 13.155389,1.57448 19.492907,3.56802 6.337519,1.99353 12.792293,4.07722 19.435401,3.99098 7.243509,-0.094 14.42094,-2.8876 19.82213,-7.71506 2.696669,0.72101 5.101434,2.48087 6.60429,4.83317 1.50286,2.3523 2.08909,5.274 1.61,8.02397 -0.36228,2.07944 -1.32132,4.05144 -2.73334,5.62036 -1.412024,1.56891 -3.272459,2.72966 -5.30238,3.30822 -4.182693,1.42131 -8.619913,2.08994 -13.03571,1.9643 -7.139598,-0.20314 -14.039049,-2.44418 -20.896344,-4.44233 -6.857296,-1.99815 -13.962865,-3.78773 -21.067945,-3.05769 -6.005594,0.61707 -11.809163,3.07729 -16.428571,6.96432 -1.798379,-1.35255 -3.203929,-3.22128 -4.004599,-5.32425 -0.80067,-2.10297 -0.993835,-4.43329 -0.550351,-6.63939 0.776863,-3.86449 3.584198,-7.26064 7.233522,-8.75068"
       id="path3006-4"
       inkscape:path-effect="#path-effect3008-3"
       inkscape:original-d="m 25.437282,932.08684 c 0,0 -0.317459,-1.81043 9.82099,-2.34394 10.13845,-0.53351 20.832121,-19.37423 38.928308,7.559 18.09619,26.93326 19.82886,-7.68399 19.82213,-7.71506 0,0 -17994978.00871,8.95833 8.21429,12.85714 17994986.777,3.89881 -8.03572,8.92858 -8.03572,8.92858 0,0 -2.50996,0.4433 -13.03571,1.9643 -10.52575,1.521 -29.668342,-9.17107 -41.964289,-7.50002 -12.295947,1.67104 -16.428571,6.96432 -16.428571,6.96432 0,0 -4.584252,-8.15435 -4.55495,-11.96364 0.03022,-3.9288 7.233522,-8.75068 7.233522,-8.75068 z"
       inkscape:connector-curvature="0"
       sodipodi:nodetypes="czzczczzcsc" />
    <rect
       style="fill:none;stroke:none"
       id="rect4276"
       width="0.71428573"
       height="16.071428"
       x="15.714286"
       y="924.505" />
    <rect
       style="fill:#00ff00;fill-opacity:1;stroke:none"
       id="rect4278"
       width="1.0714287"
       height="18.214293"
       x="24.107145"
       y="932.89789" />
    <rect
       style="fill:#00ff00;fill-opacity:1;stroke:none"
       id="rect4278-4"
       width="1.0714287"
       height="18.214293"
       x="27.321428"
       y="931.29077" />
    <rect
       style="fill:#00ff00;fill-opacity:1;stroke:none"
       id="rect4278-5"
       width="1.0714287"
       height="17.678577"
       x="30.714287"
       y="930.2193" />
    <rect
       style="fill:#00ff00;fill-opacity:1;stroke:none"
       id="rect4278-51"
       width="1.0714287"
       height="16.785721"
       x="34.107143"
       y="929.86218" />
    <rect
       style="fill:#00ff00;fill-opacity:1;stroke:none"
       id="rect4278-57"
       width="1.0714287"
       height="16.071434"
       x="37.678574"
       y="929.86218" />
    <rect
       style="fill:#00ff00;fill-opacity:1;stroke:none"
       id="rect4278-42"
       width="1.0714287"
       height="15.535722"
       x="41.071426"
       y="930.2193" />
    <rect
       style="fill:#00ff00;fill-opacity:1;stroke:none"
       id="rect4278-0"
       width="1.0714287"
       height="15.178578"
       x="44.64286"
       y="930.57648" />
    <rect
       style="fill:#00ff00;fill-opacity:1;stroke:none"
       id="rect4278-6"
       width="1.0714287"
       height="13.928578"
       x="48.39286"
       y="931.82642" />
    <rect
       style="fill:#00ff00;fill-opacity:1;stroke:none"
       id="rect4278-1"
       width="1.0714287"
       height="14.464293"
       x="51.964287"
       y="932.36218" />
    <rect
       style="fill:#00ff00;fill-opacity:1;stroke:none"
       id="rect4278-47"
       width="1.0714287"
       height="13.750008"
       x="55"
       y="933.9693" />
    <rect
       style="fill:#00ff00;fill-opacity:1;stroke:none"
       id="rect4278-9"
       width="1.0714287"
       height="13.750008"
       x="58.214287"
       y="934.32642" />
    <rect
       style="fill:#00ff00;fill-opacity:1;stroke:none"
       id="rect4278-97"
       width="1.0714287"
       height="13.035722"
       x="61.428574"
       y="935.93365" />
    <rect
       style="fill:#00ff00;fill-opacity:1;stroke:none"
       id="rect4278-40"
       width="0.89285725"
       height="14.10715"
       x="65"
       y="936.29071" />
    <rect
       style="fill:#00ff00;fill-opacity:1;stroke:none"
       id="rect4278-3"
       width="1.0714287"
       height="14.10715"
       x="68.749992"
       y="937.18359" />
    <rect
       style="fill:#00ff00;fill-opacity:1;stroke:none"
       id="rect4278-8"
       width="1.0714287"
       height="14.821436"
       x="72.5"
       y="937.18365" />
    <rect
       style="fill:#00ff00;fill-opacity:1;stroke:none"
       id="rect4278-52"
       width="1.0714287"
       height="15.35715"
       x="76.249992"
       y="937.18359" />
    <rect
       style="fill:#00ff00;fill-opacity:1;stroke:none"
       id="rect4278-05"
       width="1.0714287"
       height="16.964293"
       x="80"
       y="936.64789" />
    <rect
       style="fill:#00ff00;fill-opacity:1;stroke:none"
       id="rect4278-528"
       width="1.0714287"
       height="18.214293"
       x="83.571426"
       y="935.39789" />
    <rect
       style="fill:#00ff00;fill-opacity:1;stroke:none"
       id="rect4278-04"
       width="1.0714287"
       height="18.928577"
       x="86.964279"
       y="933.9693" />
    <rect
       style="fill:#00ff00;fill-opacity:1;stroke:none"
       id="rect4278-56"
       width="1.0714287"
       height="20.000006"
       x="90.892853"
       y="932.005" />
    <rect
       style="fill:#00ff00;fill-opacity:1;stroke:none"
       id="rect4278-34"
       width="1.0714287"
       height="21.428577"
       x="94.285713"
       y="929.86218" />
    <path
       style="fill:none;stroke:#00ff00;stroke-width:1px;stroke-linecap:butt;stroke-linejoin:miter;stroke-opacity:1"
       d="m 25.080139,981.7297 c 3.099631,-1.35661 6.442794,-2.15453 9.820989,-2.344 6.633244,-0.37203 13.155393,1.57445 19.492912,3.56799 6.337518,1.99353 12.792287,4.07724 19.435396,3.99101 7.243502,-0.094 14.420932,-2.88756 19.822133,-7.715 2.696662,0.72101 5.101423,2.48086 6.604281,4.83315 1.50286,2.35229 2.0891,5.27398 1.61001,8.02395 -0.36227,2.07944 -1.32131,4.05145 -2.733334,5.62037 -1.412025,1.56892 -3.272463,2.72963 -5.302387,3.30823 -4.182694,1.4213 -8.619913,2.0899 -13.03571,1.9643 -7.139597,-0.2031 -14.03905,-2.4442 -20.896346,-4.44232 -6.857297,-1.99815 -13.962866,-3.78772 -21.067946,-3.05768 -6.00559,0.61707 -11.809157,3.07728 -16.42857,6.9643 -1.798373,-1.3525 -3.203919,-3.22127 -4.004589,-5.32423 -0.80067,-2.10296 -0.993838,-4.43327 -0.550361,-6.63937 0.776855,-3.8645 3.584192,-7.26065 7.233522,-8.7507"
       id="path3006-4-5"
       inkscape:path-effect="#path-effect3008-3-9"
       inkscape:original-d="m 25.080139,981.7297 c 0,0 -0.317459,-1.8104 9.820989,-2.344 10.13845,-0.5335 20.832121,-19.37417 38.928308,7.559 18.096193,26.9333 19.828863,-7.6839 19.822133,-7.715 0,0 -17994977.651569,8.9583 8.214291,12.8571 17994987.13414,3.8988 -8.035721,8.9286 -8.035721,8.9286 0,0 -2.50996,0.4433 -13.03571,1.9643 -10.525753,1.521 -29.668345,-9.1711 -41.964292,-7.5 -12.295946,1.671 -16.42857,6.9643 -16.42857,6.9643 0,0 -4.584252,-8.1543 -4.55495,-11.9636 0.03022,-3.9288 7.233522,-8.7507 7.233522,-8.7507 z"
       inkscape:connector-curvature="0"
       sodipodi:nodetypes="czzczczzcsc" />
    <rect
       style="fill:#00ff00;fill-opacity:1;stroke:none"
       id="rect4278-040"
       width="1.0714287"
       height="18.214293"
       x="23.750002"
       y="982.54077" />
    <rect
       style="fill:#00ff00;fill-opacity:1;stroke:none"
       id="rect4278-4-9"
       width="1.0714287"
       height="18.214293"
       x="26.964285"
       y="980.93359" />
    <rect
       style="fill:#00ff00;fill-opacity:1;stroke:none"
       id="rect4278-5-1"
       width="1.0714287"
       height="17.678577"
       x="30.357143"
       y="979.86218" />
    <rect
       style="fill:#00ff00;fill-opacity:1;stroke:none"
       id="rect4278-51-5"
       width="1.0714287"
       height="16.785721"
       x="33.75"
       y="979.50513" />
    <rect
       style="fill:#00ff00;fill-opacity:1;stroke:none"
       id="rect4278-57-1"
       width="1.0714287"
       height="16.071434"
       x="37.32143"
       y="979.50513" />
    <rect
       style="fill:#00ff00;fill-opacity:1;stroke:none"
       id="rect4278-42-0"
       width="1.0714287"
       height="15.535722"
       x="40.714283"
       y="979.86218" />
    <rect
       style="fill:#00ff00;fill-opacity:1;stroke:none"
       id="rect4278-0-4"
       width="1.0714287"
       height="15.178578"
       x="44.285717"
       y="980.21942" />
    <rect
       style="fill:#00ff00;fill-opacity:1;stroke:none"
       id="rect4278-6-7"
       width="1.0714287"
       height="13.928578"
       x="48.035717"
       y="981.4693" />
    <rect
       style="fill:#00ff00;fill-opacity:1;stroke:none"
       id="rect4278-1-7"
       width="1.0714287"
       height="14.464293"
       x="51.607143"
       y="982.00513" />
    <rect
       style="fill:#00ff00;fill-opacity:1;stroke:none"
       id="rect4278-47-4"
       width="1.0714287"
       height="13.750008"
       x="54.642857"
       y="983.61218" />
    <rect
       style="fill:#00ff00;fill-opacity:1;stroke:none"
       id="rect4278-9-2"
       width="1.0714287"
       height="13.750008"
       x="57.857143"
       y="983.9693" />
    <rect
       style="fill:#00ff00;fill-opacity:1;stroke:none"
       id="rect4278-97-6"
       width="1.0714287"
       height="13.035722"
       x="61.07143"
       y="985.57648" />
    <rect
       style="fill:#00ff00;fill-opacity:1;stroke:none"
       id="rect4278-40-82"
       width="0.89285725"
       height="14.10715"
       x="64.64286"
       y="985.93359" />
    <rect
       style="fill:#00ff00;fill-opacity:1;stroke:none"
       id="rect4278-3-9"
       width="1.0714287"
       height="14.10715"
       x="68.392853"
       y="986.82648" />
    <rect
       style="fill:#00ff00;fill-opacity:1;stroke:none"
       id="rect4278-8-2"
       width="1.0714287"
       height="14.821436"
       x="72.14286"
       y="986.82648" />
    <rect
       style="fill:#00ff00;fill-opacity:1;stroke:none"
       id="rect4278-52-9"
       width="1.0714287"
       height="15.35715"
       x="75.892853"
       y="986.82648" />
    <rect
       style="fill:#00ff00;fill-opacity:1;stroke:none"
       id="rect4278-05-2"
       width="1.0714287"
       height="16.964293"
       x="79.642853"
       y="986.29077" />
    <rect
       style="fill:#00ff00;fill-opacity:1;stroke:none"
       id="rect4278-528-6"
       width="1.0714287"
       height="18.214293"
       x="83.214279"
       y="985.04077" />
    <rect
       style="fill:#00ff00;fill-opacity:1;stroke:none"
       id="rect4278-04-0"
       width="1.0714287"
       height="18.928577"
       x="86.60714"
       y="983.61218" />
    <rect
       style="fill:#00ff00;fill-opacity:1;stroke:none"
       id="rect4278-56-6"
       width="1.0714287"
       height="20.000006"
       x="90.535706"
       y="981.64789" />
    <rect
       style="fill:#00ff00;fill-opacity:1;stroke:none"
       id="rect4278-34-5"
       width="1.0714287"
       height="21.428577"
       x="93.928566"
       y="979.50513" />
  </g>
</svg>
