<?xml version="1.0" encoding="UTF-8" standalone="no"?>
<!-- Created with Inkscape (http://www.inkscape.org/) -->

<svg
   xmlns:dc="http://purl.org/dc/elements/1.1/"
   xmlns:cc="http://creativecommons.org/ns#"
   xmlns:rdf="http://www.w3.org/1999/02/22-rdf-syntax-ns#"
   xmlns:svg="http://www.w3.org/2000/svg"
   xmlns="http://www.w3.org/2000/svg"
   xmlns:sodipodi="http://sodipodi.sourceforge.net/DTD/sodipodi-0.dtd"
   xmlns:inkscape="http://www.inkscape.org/namespaces/inkscape"
   width="116"
   height="168"
   id="svg2"
   version="1.1"
   inkscape:version="0.48.3.1 r9886"
   sodipodi:docname="red-solid-oval.svg">
  <defs
     id="defs4" />
  <sodipodi:namedview
     id="base"
     pagecolor="#ffffff"
     bordercolor="#666666"
     borderopacity="1.0"
     inkscape:pageopacity="1"
     inkscape:pageshadow="2"
     inkscape:zoom="3.959798"
     inkscape:cx="86.969831"
     inkscape:cy="88.637294"
     inkscape:document-units="px"
     inkscape:current-layer="layer1"
     showgrid="false"
     inkscape:window-width="1855"
     inkscape:window-height="1056"
     inkscape:window-x="65"
     inkscape:window-y="24"
     inkscape:window-maximized="1" />
  <metadata
     id="metadata7">
    <rdf:RDF>
      <cc:Work
         rdf:about="">
        <dc:format>image/svg+xml</dc:format>
        <dc:type
           rdf:resource="http://purl.org/dc/dcmitype/StillImage" />
        <dc:title></dc:title>
      </cc:Work>
    </rdf:RDF>
  </metadata>
  <g
     inkscape:label="Layer 1"
     inkscape:groupmode="layer"
     id="layer1"
     transform="translate(0,-884.36217)">
    <path
       sodipodi:type="arc"
       style="fill:#ff0000;fill-rule:evenodd;stroke:#ff0000;stroke-width:1px;stroke-linecap:butt;stroke-linejoin:miter;stroke-opacity:1"
       id="path2997"
       sodipodi:cx="56.785713"
       sodipodi:cy="31.928572"
       sodipodi:rx="40.357143"
       sodipodi:ry="10.255618"
       d="m 97.142857,31.928572 c 0,5.664021 -18.068509,10.255618 -40.357144,10.255618 -22.288635,0 -40.357143,-4.591597 -40.357143,-10.255618 0,-5.664022 18.068508,-10.255618 40.357143,-10.255618 22.288635,0 40.357144,4.591596 40.357144,10.255618 z"
       transform="translate(0.75761441,884.10963)" />
    <path
       sodipodi:type="arc"
       style="fill:#ff0000;fill-rule:evenodd;stroke:#ff0000;stroke-width:1px;stroke-linecap:butt;stroke-linejoin:miter;stroke-opacity:1"
       id="path2997-7"
       sodipodi:cx="56.785713"
       sodipodi:cy="31.928572"
       sodipodi:rx="40.357143"
       sodipodi:ry="10.255618"
       d="m 97.142857,31.928572 c 0,5.664021 -18.068509,10.255618 -40.357144,10.255618 -22.288635,0 -40.357143,-4.591597 -40.357143,-10.255618 0,-5.664022 18.068508,-10.255618 40.357143,-10.255618 22.288635,0 40.357144,4.591596 40.357144,10.255618 z"
       transform="translate(0.03536758,935.83332)" />
    <path
       sodipodi:type="arc"
       style="fill:#ff0000;fill-rule:evenodd;stroke:#ff0000;stroke-width:1px;stroke-linecap:butt;stroke-linejoin:miter;stroke-opacity:1"
       id="path2997-7-0"
       sodipodi:cx="56.785713"
       sodipodi:cy="31.928572"
       sodipodi:rx="40.357143"
       sodipodi:ry="10.255618"
       d="m 97.142857,31.928572 c 0,5.664021 -18.068509,10.255618 -40.357144,10.255618 -22.288635,0 -40.357143,-4.591597 -40.357143,-10.255618 0,-5.664022 18.068508,-10.255618 40.357143,-10.255618 22.288635,0 40.357144,4.591596 40.357144,10.255618 z"
       transform="translate(1.8031345,983.81557)" />
  </g>
</svg>
